<mxfile host="app.diagrams.net" modified="2024-03-25T14:29:12.189Z" agent="Mozilla/5.0 (Windows NT 10.0; Win64; x64; rv:124.0) Gecko/20100101 Firefox/124.0" version="24.0.6" etag="DQHfGZc2NKn0VPqH1znn" type="github">
  <diagram name="Page-1" id="SP0Z641HaMjEefX4H5Pm">
    <mxGraphModel>
      <root>
        <mxCell id="0" />
        <mxCell id="1" parent="0" />
      </root>
    </mxGraphModel>
  </diagram>
</mxfile>
